<svg xmlns="http://www.w3.org/2000/svg" version="1.0" width="1274.000000pt" height="1280.000000pt" viewBox="0 0 1274.000000 1280.000000" preserveAspectRatio="xMidYMid meet">
    <g transform="translate(0.000000,1280.000000) scale(0.100000,-0.100000)" fill="#2196f3" stroke="none">
        <path d="M5946 12377 c-178 -232 -815 -1061 -1415 -1842 l-1091 -1420 1098 -5 c1090 -5 1097 -5 1095 -25 -2 -11 -7 -49 -13 -85 -7 -44 -10 -815 -8 -2420 4 -2571 -1 -2369 58 -2510 167 -396 645 -556 1027 -345 43 24 100 70 155 125 72 72 94 103 132 181 83 171 77 -49 73 2624 -2 1309 -7 2397 -12 2417 l-7 38 1032 2 1032 3 -599 780 c-330 429 -967 1258 -1416 1842 l-816 1063 -325 -423z"/>
        <path d="M0 3730 l0 -3730 6370 0 6370 0 0 3730 0 3730 -2055 0 -2055 0 0 -660 0 -660 1265 0 1265 0 0 -2410 0 -2410 -4790 0 -4790 0 0 2410 0 2410 1365 0 1365 0 -2 658 -3 657 -2152 3 -2153 2 0 -3730z"/>
    </g>
</svg>